<svg xmlns="http://www.w3.org/2000/svg" width="512" height="512"><g><g fill="#2396F5" fill-rule="evenodd" clip-rule="evenodd"><path d="M168.92 246.73s9.36 32.06 40.27 53.88h135.5s-3.9-24.8.93-53.88h-176.7zM281.95 171.46c7.13-17.08 41.5-53.64 91.93-32.66l77.24-.2-58.46 12.94s-30.73 30.9-42.17 73.8H102.65s-27.92-18.04-40.54-53.88h219.83zm74.3-22.32c-3.17 0-5.73 2.56-5.73 5.72 0 3.17 2.56 5.73 5.72 5.73 3.16 0 5.72-2.58 5.72-5.74s-2.56-5.72-5.72-5.72zM275.63 322.17l73.17-.04c7.04 27.48 18.38 46.12 23.27 54.07-10.08-.02-61.97-.95-96.44-54.03z"/></g></g></svg>